PathFileType  4	(X/Y/Z) C:\Users\antoi\Documents\MyRepositories\mobilecap\ResultsAnalysis
DataRate	CameraRate	NumFrames	NumMarkers	Units	OrigDataRate	OrigDataStartFrame	OrigNumFrames
100.0	100.0	5	51	mm	100.0	85	135
Frame#	Time	r_knee			r_shank_antsup			r_ankle			r_calc			r_5meta			r_toe			L_knee			L_shank_antsup			L_ankle			L_calc			L_5meta			L_toe			r_sh2			r_sh3			r_sh4			L_sh2			L_sh3			r_thigh1			r_thigh2			r_thigh3			r_thigh4			r_thigh5			L_thigh1			L_thigh2			L_thigh3			L_thigh4			r.ASIS			r.PSIS			L.ASIS			L.PSIS			C7			R_Shoulder			L_Shoulder			R_Sternum			L_Sternum			R_humerus			R_elbow_med			R_elbow_lat			R_forearm			R_wrist_radius			R_wrist_ulna			L_humerus			L_elbow_med			L_elbow_lat			L_forearm			L_wrist_radius			L_wrist_ulna			R_HJC			L_HJC			R_HJC_reg			L_HJC_reg			
		X1	Y1	Z1	X2	Y2	Z2	X3	Y3	Z3	X4	Y4	Z4	X5	Y5	Z5	X6	Y6	Z6	X7	Y7	Z7	X8	Y8	Z8	X9	Y9	Z9	X10	Y10	Z10	X11	Y11	Z11	X12	Y12	Z12	X13	Y13	Z13	X14	Y14	Z14	X15	Y15	Z15	X16	Y16	Z16	X17	Y17	Z17	X18	Y18	Z18	X19	Y19	Z19	X20	Y20	Z20	X21	Y21	Z21	X22	Y22	Z22	X23	Y23	Z23	X24	Y24	Z24	X25	Y25	Z25	X26	Y26	Z26	X27	Y27	Z27	X28	Y28	Z28	X29	Y29	Z29	X30	Y30	Z30	X31	Y31	Z31	X32	Y32	Z32	X33	Y33	Z33	X34	Y34	Z34	X35	Y35	Z35	X36	Y36	Z36	X37	Y37	Z37	X38	Y38	Z38	X39	Y39	Z39	X40	Y40	Z40	X41	Y41	Z41	X42	Y42	Z42	X43	Y43	Z43	X44	Y44	Z44	X45	Y45	Z45	X46	Y46	Z46	X47	Y47	Z47	X48	Y48	Z48	X49	Y49	Z49	X50	Y50	Z50	X51	Y51	Z51	

85	0.84000000	1069.32972	497.70397	-56.32701	1072.84936	416.88722	-77.88912	801.05822	215.03818	-107.66173	726.76745	231.99676	-145.66928	848.18891	104.21745	-84.51833	907.20815	106.74416	-135.24775	974.14236	484.65657	-386.64016	995.69925	384.76198	-393.88180	864.02691	100.75236	-365.78311	794.61849	65.52311	-317.05420	959.42186	41.26130	-415.60309	1006.19709	62.64361	-361.61155	979.81559	346.46301	-64.22143	1021.91876	474.24015	-45.36790	933.88847	404.04155	-53.71398	910.80232	414.91826	-395.17792	881.23693	296.11397	-398.12231	998.83002	807.66689	-40.10397	1044.42613	703.50176	-38.77826	996.27537	659.87336	-19.02752	894.13686	761.93660	-36.31469	942.34219	655.24033	-42.23361	956.01752	756.60476	-423.31309	990.12362	622.40696	-409.36170	852.76524	729.16716	-375.83514	893.11636	594.76322	-369.71760	978.00052	951.68539	-87.82938	791.56229	983.28090	-170.44939	992.40375	939.74290	-339.14704	786.90468	992.33794	-271.49596	824.06317	1400.99800	-319.49364	920.17904	1405.30649	-136.19847	899.37277	1307.56784	-478.06938	960.25037	1357.24737	-286.93208	966.28954	1345.08798	-328.73696	917.32139	1296.83989	-35.66121	848.36726	1085.40138	-6.72244	862.40607	1124.20740	54.73144	969.43394	1031.39391	87.50953	1044.49673	922.02090	114.65929	1022.28317	913.99795	140.98380	921.49567	1186.74245	-512.86069	907.13156	959.26594	-432.13361	930.89706	976.61980	-506.27520	1009.19382	891.50894	-492.98292	1061.13727	740.38350	-489.80102	1041.46760	737.90399	-519.41841	903.96739	869.52011	-112.77532	910.43227	867.54748	-319.14131	920.55298	859.52098	-127.31228	912.92600	874.35328	-292.80020	
86	0.85000000	1084.54101	502.78416	-57.65530	1091.43553	422.20723	-78.71376	830.16600	206.56499	-110.63202	755.54227	219.97232	-149.04842	882.48834	98.30199	-86.94981	941.71421	103.68141	-137.30577	975.45702	485.51349	-385.60674	996.22050	385.49272	-393.14747	864.21698	101.20249	-365.76460	794.85141	65.71499	-316.99405	959.45398	41.26134	-415.63159	1005.95403	62.47891	-361.66101	1001.62865	347.11171	-66.10902	1037.11928	477.00353	-47.15687	952.83735	402.38608	-56.09419	911.40057	415.87829	-394.09922	881.48901	297.15984	-397.34441	1009.90944	811.95419	-39.83502	1056.72596	708.33544	-39.03435	1009.23360	664.05001	-19.26485	905.78004	764.77479	-35.81795	955.57865	658.70621	-42.12071	963.78230	757.76323	-422.71835	994.75961	622.83177	-408.31811	859.81989	733.11646	-375.58494	896.95418	597.71222	-368.69378	987.55915	955.35160	-88.04514	801.65469	986.29848	-170.98544	1003.33367	942.44232	-339.19251	797.40639	995.00216	-271.95692	834.99371	1403.81650	-320.32196	928.74762	1408.15864	-136.04810	911.30538	1311.22536	-478.37863	970.50471	1360.53961	-286.49274	976.89792	1348.54938	-328.22297	924.63571	1299.33649	-35.69083	854.75340	1088.10214	-8.70575	867.87577	1126.48846	53.17776	973.86438	1033.07454	87.55268	1047.84864	922.98874	115.66983	1025.22879	915.07185	141.43001	933.75461	1190.28077	-513.29348	925.16236	963.33573	-429.73010	946.71824	980.09389	-504.81439	1027.34870	896.89424	-492.06790	1083.18584	747.11594	-487.62053	1062.60804	743.88491	-516.64469	914.05974	872.91780	-112.70770	921.17465	870.24815	-319.04124	930.60325	862.89681	-127.43791	923.63929	877.16445	-292.97922	
87	0.86000000	1099.06731	507.49264	-58.80818	1109.43594	427.23849	-79.32219	859.92142	197.80472	-113.15294	785.10818	207.32738	-152.05094	917.54374	92.43429	-88.86789	976.91119	100.81559	-138.81118	976.65341	486.47614	-384.55106	996.56724	386.35938	-392.39895	864.40234	101.72333	-365.72126	795.11415	65.95173	-316.89688	959.49236	41.26907	-415.65395	1005.93180	62.42547	-361.71439	1023.33872	347.55251	-67.63745	1051.76781	479.26100	-48.87596	971.61435	400.28259	-58.27998	911.79415	416.91658	-392.97372	881.61211	298.27931	-396.55590	1020.93489	816.03267	-39.46782	1068.74064	712.86230	-39.16067	1021.69683	668.13310	-19.35303	917.21794	767.63472	-35.24428	968.53367	662.13811	-41.80552	971.50338	758.88575	-422.08374	999.32113	623.31335	-407.23315	866.87022	737.04142	-375.46600	900.72687	600.73099	-367.79658	997.29927	959.05771	-88.34378	811.87262	989.42233	-171.51283	1014.20773	944.93088	-339.25930	807.96851	997.70303	-272.37703	845.97548	1406.57654	-320.92121	937.27112	1410.87175	-135.68321	923.33130	1315.07049	-478.50594	980.84701	1363.85132	-285.85739	987.51026	1352.08719	-327.54217	931.85397	1301.74233	-35.50732	861.12510	1090.68123	-10.42327	873.40289	1128.68001	51.84479	978.36034	1034.73894	87.71498	1051.44173	924.03134	116.73772	1028.40299	916.15963	141.88042	946.23107	1194.10053	-513.70368	942.61891	967.71429	-427.81139	962.39657	983.80034	-503.60957	1045.26448	902.55062	-491.17521	1105.12910	754.30956	-485.21274	1083.73377	750.15300	-513.65693	924.22367	876.39774	-112.57427	931.83632	872.82625	-318.87216	940.72424	866.30550	-127.52668	934.31670	879.89504	-293.08772	
88	0.87000000	1112.94966	511.73939	-59.78215	1126.84860	431.91985	-79.74996	890.33460	188.86449	-115.14936	815.47254	194.26938	-154.53815	953.30150	86.68547	-90.27375	1012.68645	98.20272	-139.79755	977.81815	487.48536	-383.48619	996.79934	387.31373	-391.65535	864.59825	102.30946	-365.64620	795.37822	66.26668	-316.76456	959.54030	41.28300	-415.66660	1006.16252	62.49007	-361.77389	1044.99046	347.76214	-68.76971	1065.95439	480.91020	-50.46577	990.30706	397.69322	-60.18024	912.05356	418.00192	-391.81987	881.67315	299.44426	-395.77101	1031.90138	819.83674	-39.05159	1080.49352	717.02322	-39.19190	1033.71270	672.05734	-19.29054	928.45715	770.44584	-34.64441	981.18870	665.49867	-41.29531	979.19407	759.90433	-421.43777	1003.84827	623.79631	-406.14060	873.94257	740.79952	-375.44042	904.53636	603.71340	-367.01971	1007.21540	962.68535	-88.72199	822.21404	992.56250	-172.04890	1025.00258	947.10914	-339.33745	818.59258	1000.37319	-272.78351	857.00846	1409.21225	-321.29139	945.80176	1413.35930	-135.13003	935.46513	1318.98174	-478.43795	991.29165	1367.06261	-285.02977	998.15894	1355.55691	-326.70198	939.00345	1303.98264	-35.12951	867.47690	1093.07745	-11.87676	878.98892	1130.72610	50.73383	982.93580	1036.32140	87.99080	1055.30585	925.10996	117.86963	1031.81923	917.19752	142.36413	958.97118	1198.08742	-514.05083	959.51235	972.21737	-426.37944	978.00995	987.62921	-502.66023	1062.99615	908.36007	-490.26063	1126.91088	761.83646	-482.62249	1104.87412	756.61707	-510.51006	934.43021	879.85554	-112.39031	942.39960	875.19278	-318.64904	950.89526	869.62622	-127.59667	944.94428	882.45924	-293.13522	
89	0.88000000	1126.23312	515.46442	-60.58661	1143.68946	436.22555	-80.02891	921.39243	179.85582	-116.56037	846.64143	181.01943	-156.40839	989.68567	81.13374	-91.15140	1048.89361	95.87342	-140.27340	979.01394	488.48305	-382.43463	996.97484	388.30234	-390.93108	864.81567	102.94227	-365.54398	795.62228	66.67808	-316.60814	959.59869	41.29769	-415.66768	1006.60905	62.64608	-361.84011	1066.62193	347.73571	-69.50061	1079.75686	481.89693	-51.84717	1009.00332	394.59236	-61.70401	912.25452	419.10018	-390.66284	881.73498	300.62196	-395.00432	1042.81180	823.31313	-38.64190	1092.00828	720.77156	-39.16725	1045.34467	675.75258	-19.08171	939.52599	773.14289	-34.03704	993.51575	668.74343	-40.59790	986.86423	760.76114	-420.80156	1008.37047	624.22640	-405.06705	881.03831	744.28058	-375.47227	908.44278	606.57170	-366.35431	1017.28285	966.08770	-89.16227	832.67183	995.61581	-172.59516	1035.71069	948.90827	-339.41351	829.27906	1002.94097	-273.19278	868.09298	1411.66407	-321.43556	954.39606	1415.55039	-134.40950	947.71129	1322.84448	-478.16343	1001.84364	1370.07292	-284.01694	1008.87375	1358.83112	-325.70193	946.12563	1305.98637	-34.58361	873.81005	1095.24190	-13.08347	884.63427	1132.57547	49.83443	987.60906	1037.75944	88.36654	1059.43167	926.16120	119.03933	1035.47714	918.12443	142.90142	972.00803	1202.12934	-514.29805	975.87591	976.66004	-425.40435	993.61048	991.47712	-501.95906	1080.59022	914.21743	-489.28520	1148.50441	769.57594	-479.87332	1126.04809	763.20400	-507.22995	944.64620	883.16028	-112.18047	952.85747	877.27917	-318.39638	961.08622	872.73268	-127.66326	955.50515	884.78035	-293.13434	
